<svg viewBox="0 0 448 52" xmlns="http://www.w3.org/2000/svg" xml:space="preserve" style="fill-rule:evenodd;clip-rule:evenodd;stroke-linejoin:round;stroke-miterlimit:2"><path d="M26.779 4.769h-.553c-.149 1.788-2.583 7.113-3.021 8.047L9.001 44.925c-1.305 2.44-3.424 3.461-5.169 3.461h-.553V49H16.45v-.609h-.54c-1.586 0-3.358-1.398-2.349-3.856l3.143-7.59h14.414l3.024 7.59c.937 2.458-.788 3.856-2.374 3.856h-.54v.608h19.571v-.614h-.514c-1.81 0-3.913-1.048-5.242-3.562L26.779 4.769Zm-8.995 29.587 6.294-15.083 6.009 15.083H17.784ZM63.194 23.473c-2.309-1.419-4.155-2.601-3.981-4.883.154-2.794 2.777-4.78 6.72-4.78 4.889 0 7.636 2.441 7.636 6.168h.522l.86-8.054H71.62c-2.551-.317-5.934-.562-7.986-.562-6.255 0-10.562 3.448-11.082 9.302-.463 4.205 1.504 7.559 5.435 10.047l8.747 5.537c3.147 1.991 4.59 3.407 4.59 5.526 0 3.008-2.322 5.537-7.111 5.574-6.563.028-10.503-4.62-10.15-10.18h-.481c-1.484 2.321-2.325 7.008-1.381 9.351 1.768 1.91 6.03 3.281 11.325 3.281 8.543 0 14.057-4.185 14.435-11.134.277-4.378-1.919-7.295-5.054-9.222l-9.713-5.971ZM116.018 11.144c-.792.389-4.158.941-6.458.941H86.888c-2.292 0-5.433-.552-6.449-.941v9.745h.631v-.573c0-3.5 2.031-5.721 5.62-5.772h7.096v30.582c-.052 1.854-1.536 3.263-3.39 3.263h-.651v.614h16.974v-.614h-.651c-1.835 0-3.345-1.381-3.388-3.207V14.543h7.093c3.589.052 5.646 2.272 5.621 5.773v.572h.63l-.006-9.744ZM147.677 12.142v.614h.843c1.527 0 2.748 1.041 2.805 2.575v20.671c-.047 7.112-3.847 11.349-10.263 11.349-6.214 0-9.904-4.489-9.904-12.031V15.343c.013-1.54 1.237-2.586 2.768-2.586h.882v-.614h-16.154v.614h.842c1.532 0 2.795 1.046 2.806 2.586v20.371c0 8.781 5.801 14.086 17.614 14.086 9.839 0 15.463-5.358 15.463-14.199V15.293c.038-1.514 1.29-2.536 2.805-2.536h.842v-.614l-11.349-.001ZM196.793 11.144c-.792.389-4.158.941-6.458.941h-22.671c-2.292 0-5.434-.552-6.45-.941v9.745h.631v-.573c0-3.5 2.032-5.721 5.621-5.772h7.096v30.582c-.053 1.854-1.537 3.263-3.39 3.263h-.652v.614h16.974v-.614h-.651c-1.835 0-3.345-1.381-3.388-3.207V14.543h7.093c3.59.052 5.646 2.272 5.622 5.773v.572h.629l-.006-9.744ZM231.322 37.706h-.593c-1.609 5.434-5.169 8.775-10.361 8.825h-7.394V31.962h7.065c2.842.089 4.612 2.13 4.612 4.854v.434h.636v-13h-.636v.395c0 2.749-1.802 4.802-4.689 4.856h-6.988V14.61h8.849c3.552.052 5.585 2.272 5.585 5.813v.572h.635v-9.798c-.971.386-4.075.93-6.38.942h-21.611v.614h.736c1.816 0 3.299 1.366 3.326 3.207v29.209c-.041 1.827-1.519 3.21-3.326 3.21h-.736v.614h28.888l2.382-11.287ZM263.302 19.349c-2.574-1.672-4.429-3.292-4.28-5.711.149-3.298 3.204-5.908 8.04-5.908 5.196 0 8.651 2.806 8.66 7.071h.591l.805-9.029h-3.858c-2.806-.356-6.389-.63-8.366-.63-7.748 0-12.408 4.394-12.931 10.754-.447 4.477 1.652 8.218 5.879 11.023l10.703 7.102c3.302 2.191 4.915 3.852 4.911 6.344.004 3.848-3.146 6.808-8.488 6.906-7.369.119-12.076-5.164-11.583-11.569h-.54c-1.607 2.68-2.473 7.861-1.456 10.428 2.241 2.31 7.403 3.729 12.912 3.729 9.824 0 15.856-4.715 16.229-12.717.261-4.592-1.863-7.812-5.515-10.185l-11.713-7.608ZM285.299 12.142v.614h.729c1.851 0 3.327 1.38 3.342 3.234v29.178c-.035 1.832-1.466 3.222-3.301 3.222h-.73v.611h16.967v-.614h-.725c-1.931 0-3.289-1.405-3.345-3.254V14.558h2.798c4.528 0 7.247 2.842 7.378 7.327.027.934-.101 2.214-.355 3.243-1.867 6.906-7.873 6.213-7.874 6.213v.525c8.065 5.407 17.966.207 17.573-9.553-.202-5.704-4.419-10.17-14.262-10.17l-18.195-.001ZM321.651 12.142v.617h.774c1.769 0 3.201 1.352 3.232 3.191v29.234c-.043 1.829-1.507 3.202-3.269 3.202h-.736v.615h16.911v-.615h-.668c-1.632 0-3.33-1.215-3.338-3.258V14.681c.7.028 1.928-.048 3.512.026 2.128.098 6.254.974 6.529 7.033.052 1.201-.091 2.082-.207 2.57-1.028 5.161-3.837 6.109-6.381 6.143h-1.573v.515c1.132.091 2.652 1.193 3.679 3.764.562 2.064 2.763 6.186 4.117 8.378 2.92 4.603 6.062 5.891 12.734 5.891h5.15v-.615c-2.532-.011-3.916-.919-6.315-4.183-2.154-2.871-3.943-5.913-4.461-6.845-1.151-1.889-3.496-4.487-5.929-5.227 6.049-.872 8.53-5.603 8.53-9.924 0-7.66-6.6-10.062-13.408-10.062l-18.883-.003ZM389.143 12.142v.614h.843c1.527 0 2.748 1.041 2.805 2.575v20.671c-.047 7.112-3.847 11.349-10.263 11.349-6.214 0-9.904-4.489-9.904-12.031V15.343c.013-1.54 1.236-2.586 2.768-2.586h.882v-.614H360.12v.614h.842c1.531 0 2.794 1.046 2.805 2.586v20.371c0 8.781 5.802 14.086 17.614 14.086 9.84 0 15.464-5.358 15.464-14.199V15.293c.038-1.514 1.29-2.536 2.805-2.536h.842v-.614l-11.349-.001ZM439.817 33.601c-1.519 10.005-5.451 13.775-14.214 13.747-8.065-.193-12.794-6.727-12.794-16.915 0-10.017 4.486-16.657 13.416-16.657 6.085 0 10.647 2.59 12.729 10.136h.476v-9.759c-3.23-1.572-8.218-2.792-13.834-2.792-13.868 0-22.149 7.155-22.149 19.191 0 12.177 8.477 19.184 22.149 19.245 7.993 0 13.021-3.04 15.42-6.934l-.722-9.264-.477.002ZM476.658 37.706h-.593c-1.609 5.434-5.169 8.775-10.362 8.825h-7.394V31.962h7.066c2.842.089 4.612 2.13 4.612 4.854v.434h.635v-13h-.635v.395c0 2.749-1.802 4.802-4.69 4.856h-6.987V14.61h8.849c3.552.052 5.584 2.272 5.584 5.813v.572h.636v-9.798c-.971.386-4.075.93-6.38.942h-21.611v.614h.736c1.815 0 3.298 1.366 3.325 3.207v29.209c-.041 1.827-1.518 3.21-3.325 3.21h-.736v.614h28.887l2.383-11.287Z" style="fill:#404040;fill-rule:nonzero" transform="matrix(.9295 0 0 .9758 .9518 -.6536)"/></svg>